<svg width="523" height="277" viewBox="0 0 523 277" fill="none" xmlns="http://www.w3.org/2000/svg">
<path d="M68.6999 276.6C23.4999 276.6 0.899902 263 0.899902 235.8C0.899902 227.8 3.2999 220.7 8.0999 214.5C12.8999 208.3 19.4999 203.5 27.8999 200.1L28.1999 199.2C19.7999 194.2 15.5999 186.4 15.5999 175.8C15.5999 164.2 21.3999 155 32.9999 148.2C25.1999 144 19.0999 138.4 14.6999 131.4C10.4999 124.2 8.3999 115.6 8.3999 105.6C8.3999 88.8 13.9999 76 25.1999 67.2C36.5999 58.4 51.7999 54 70.7999 54C78.7999 54 85.8999 54.7 92.0999 56.1H142.5C145.3 56.1 147.3 57.1 148.5 59.1C149.9 61.1 150.6 64.4 150.6 69V73.5C150.6 77.9 150 81.1 148.8 83.1C147.8 84.9 146.1 85.8 143.7 85.8C141.5 85.8 138.5 85.6 134.7 85.2C131.1 84.6 128.3 84 126.3 83.4L126 84.3C128.4 87.1 130.2 90.4 131.4 94.2C132.8 97.8 133.5 101.6 133.5 105.6C133.5 121.8 128 134.3 117 143.1C106 151.7 91.2999 156 72.8999 156C64.0999 156 57.9999 157 54.5999 159C51.3999 160.8 49.7999 164 49.7999 168.6C49.7999 173.4 52.5999 176.8 58.1999 178.8C63.7999 180.6 72.4999 182.2 84.2999 183.6L96.8999 185.4C111.5 188 123 192.4 131.4 198.6C139.8 204.6 144 214.3 144 227.7C144 242.7 137.3 254.6 123.9 263.4C110.5 272.2 92.0999 276.6 68.6999 276.6ZM70.7999 127.8C78.7999 127.8 85.2999 126 90.2999 122.4C95.2999 118.6 97.7999 112.8 97.7999 105C97.7999 97.2 95.2999 91.5 90.2999 87.9C85.2999 84.1 78.7999 82.2 70.7999 82.2C62.7999 82.2 56.2999 84.1 51.2999 87.9C46.4999 91.5 44.0999 97.2 44.0999 105C44.0999 113 46.4999 118.8 51.2999 122.4C56.2999 126 62.7999 127.8 70.7999 127.8ZM71.9999 246.6C95.5999 246.6 107.4 240.7 107.4 228.9C107.4 223.3 104.2 219.4 97.7999 217.2C91.5999 215.2 81.0999 213.4 66.2999 211.8L53.9999 210.3C48.7999 212.3 44.6999 214.9 41.6999 218.1C38.6999 221.5 37.1999 225.3 37.1999 229.5C37.1999 235.1 39.9999 239.3 45.5999 242.1C51.1999 245.1 59.9999 246.6 71.9999 246.6Z" fill="#E1FFBB"/>
<path d="M191.669 213.6C181.069 213.6 175.769 210.7 175.769 204.9V64.2C175.769 58.4 181.069 55.5 191.669 55.5H197.669C208.269 55.5 213.569 58.4 213.569 64.2V204.9C213.569 210.7 208.269 213.6 197.669 213.6H191.669ZM194.969 38.7C182.169 38.7 175.769 35.8 175.769 30V8.4C175.769 2.8 182.169 0 194.969 0C207.569 0 213.869 2.8 213.869 8.4V30C213.869 35.8 207.569 38.7 194.969 38.7Z" fill="#E1FFBB"/>
<path d="M301.964 213.6C293.364 213.6 288.364 211.7 286.964 207.9L238.964 66.6C238.764 66 238.564 65.3 238.364 64.5C238.164 63.5 238.064 62.5 238.064 61.5C238.064 57.5 243.464 55.5 254.264 55.5H261.464C270.064 55.5 275.064 57.4 276.464 61.2L296.864 125.4C301.264 139 304.864 153.7 307.664 169.5H308.864C311.264 153.9 314.964 138.6 319.964 123.6L339.764 61.2C341.164 57.4 346.264 55.5 355.064 55.5H360.164C370.764 55.5 376.064 57.5 376.064 61.5C376.064 62.7 375.764 64.4 375.164 66.6L327.164 207.9C325.764 211.7 320.664 213.6 311.864 213.6H301.964Z" fill="#E1FFBB"/>
<path d="M455.069 215.1C439.669 215.1 425.169 213.2 411.569 209.4C398.169 205.4 391.469 200 391.469 193.2C391.469 190 392.969 185.9 395.969 180.9C399.169 175.7 402.069 173.1 404.669 173.1C406.069 173.1 408.769 174.1 412.769 176.1C418.969 178.7 424.769 180.8 430.169 182.4C435.769 184 442.269 184.8 449.669 184.8C459.269 184.8 467.369 182 473.969 176.4C480.569 170.8 483.869 162.5 483.869 151.5C483.869 139.7 480.669 131.1 474.269 125.7C468.069 120.3 458.469 117.6 445.469 117.6H436.469C433.669 117.6 431.669 116.6 430.469 114.6C429.269 112.4 428.669 109.1 428.669 104.7V100.2C428.669 95.6 429.269 92.3 430.469 90.3C431.669 88.3 433.669 87.3 436.469 87.3H443.369C454.369 87.3 462.769 84.4 468.569 78.6C474.369 72.6 477.269 65.5 477.269 57.3C477.269 49.9 474.969 43.8 470.369 39C465.769 34 458.669 31.5 449.069 31.5C441.869 31.5 435.869 32.2 431.069 33.6C426.269 34.8 421.769 36.4 417.569 38.4C414.769 40 412.569 40.8 410.969 40.8C408.569 40.8 405.769 38.4 402.569 33.6C399.369 28.6 397.769 24.3 397.769 20.7C397.769 14.7 403.669 9.90001 415.469 6.30001C427.269 2.70001 440.269 0.900009 454.469 0.900009C473.069 0.900009 487.869 5.60001 498.869 15C510.069 24.2 515.669 37 515.669 53.4C515.669 63.6 512.969 72.5 507.569 80.1C502.369 87.5 495.369 93 486.569 96.6V97.8C497.769 101.6 506.569 108.2 512.969 117.6C519.369 127 522.569 138.4 522.569 151.8C522.569 165.4 519.469 177 513.269 186.6C507.269 196 499.169 203.1 488.969 207.9C478.769 212.7 467.469 215.1 455.069 215.1Z" fill="#E1FFBB"/>
</svg>
